<svg width="173" height="35" viewBox="0 0 173 35" fill="none" xmlns="http://www.w3.org/2000/svg">
<g id="#43434bff">
<path id="Vector" d="M14.5951 0H15.3672C18.4716 0.112402 21.5521 0.965013 24.2406 2.53042C27.0826 4.1799 29.5043 6.54582 31.237 9.33668C33.739 13.3713 34.6584 18.3828 33.6349 23.0278C33.2739 24.5896 32.711 26.1504 31.6975 27.4124C30.8056 28.5419 29.3718 29.1286 27.9563 29.177C25.912 29.2556 23.9272 28.5657 22.1123 27.6811C21.5219 27.3923 20.9481 27.0706 20.3833 26.7343C19.9136 28.8179 19.4585 30.9051 18.9842 32.9877C18.7256 34.0853 17.7048 34.9205 16.5863 35H16.2875C15.2823 34.9543 14.33 34.3073 13.9535 33.3688C13.7041 32.8187 13.7772 32.2027 13.7004 31.6188C13.4537 29.5298 12.7445 27.4736 11.5255 25.7492C10.6592 24.5228 9.52234 23.4911 8.22469 22.739C6.63279 21.8106 4.83344 21.2842 3.01673 21.0292C2.48031 20.9561 1.91647 20.936 1.43305 20.6655C0.443362 20.1693 -0.147892 19.0078 0.0321345 17.9149C0.171952 16.8777 0.985267 15.9711 2.00602 15.7317C3.93057 15.2876 5.85877 14.8581 7.78331 14.4185C6.75707 12.8193 5.85968 11.1196 5.31412 9.29191C4.95863 8.08381 4.76033 6.80718 4.92025 5.54974C5.05367 4.47141 5.51333 3.41684 6.29924 2.65379C7.07143 1.90352 8.04558 1.4 9.03983 1.00796C10.8081 0.328982 12.7062 0.0374674 14.5951 0ZM19.8907 11.6898C15.8644 12.6018 11.8371 13.5138 7.81072 14.4286C9.43736 16.927 11.4131 19.1815 13.535 21.2687C15.6222 23.3056 17.8748 25.1936 20.3733 26.7087C21.2533 22.7747 22.1278 18.8397 23.0088 14.9056C23.187 14.1736 23.0389 13.3713 22.6003 12.7572C22.0163 11.9055 20.9005 11.4595 19.8907 11.6898Z" fill="#56565C"/>
<path id="Vector_2" d="M112.407 6.70459C113.274 6.70459 114.142 6.70459 115.01 6.7055C115.011 12.3247 115.01 17.9448 115.011 23.5649C114.142 23.5658 113.274 23.5658 112.406 23.5658C112.406 17.9448 112.405 12.3247 112.407 6.70459Z" fill="#56565C"/>
<path id="Vector_3" d="M158.705 6.70459C159.583 6.7055 160.463 6.70459 161.342 6.7055C161.343 12.3247 161.343 17.9448 161.343 23.5649C160.463 23.5658 159.583 23.5658 158.704 23.5658C158.704 22.9453 158.701 22.3248 158.705 21.7052C157.782 22.9618 156.253 23.7129 154.703 23.7632C153.202 23.861 151.673 23.3474 150.554 22.3394C149.182 21.1167 148.461 19.2717 148.445 17.4522C148.396 16.0276 148.724 14.5645 149.528 13.3738C150.409 12.0158 151.897 11.0755 153.501 10.8644C155.394 10.5902 157.456 11.2637 158.705 12.7377C158.702 10.7264 158.704 8.71595 158.705 6.70459ZM154.197 13.1371C153.221 13.3171 152.333 13.9093 151.8 14.7464C151.197 15.6419 151.04 16.765 151.145 17.8214C151.23 18.7362 151.599 19.6263 152.218 20.3089C153.18 21.3863 154.806 21.7994 156.162 21.2904C157.448 20.8481 158.365 19.6345 158.61 18.3204C158.841 17.0648 158.686 15.6748 157.916 14.623C157.113 13.4487 155.586 12.8511 154.197 13.1371Z" fill="#56565C"/>
<path id="Vector_4" d="M46.2668 9.85758C46.2668 9.14936 46.2668 8.44113 46.2678 7.73291C49.9496 7.73382 53.6315 7.73291 57.3133 7.73382C57.3133 8.44205 57.3133 9.15027 57.3133 9.8585C55.9124 9.85941 54.5106 9.85758 53.1097 9.85941C53.1097 14.4277 53.1097 18.9969 53.1097 23.5661C52.2379 23.5661 51.3661 23.5661 50.4943 23.5661C50.4933 18.9969 50.4943 14.4286 50.4933 9.85941C49.0851 9.85667 47.676 9.85941 46.2668 9.85758Z" fill="#56565C"/>
<path id="Vector_5" d="M65.2473 10.9513C65.6622 10.8407 66.0917 10.8124 66.5185 10.7996C66.5221 11.7006 66.5194 12.6016 66.5203 13.5027C65.5662 13.4798 64.5117 13.4899 63.7285 14.115C62.9728 14.7062 62.8019 15.7334 62.7662 16.6353C62.7571 18.9455 62.7653 21.2557 62.7626 23.5659C61.8935 23.5659 61.0254 23.5659 60.1572 23.565C60.1581 19.3805 60.1563 15.196 60.1581 11.0116C61.0263 11.0116 61.8944 11.0107 62.7626 11.0116C62.7617 11.6074 62.7644 12.2032 62.7608 12.799C63.3118 11.8943 64.211 11.1971 65.2473 10.9513Z" fill="#56565C"/>
<path id="Vector_6" d="M71.243 11.5784C72.4529 10.861 73.9251 10.6618 75.3013 10.8976C76.5642 11.1069 77.7248 11.8187 78.5272 12.8093C78.5235 12.2099 78.5253 11.6104 78.5262 11.0118C79.4017 11.0118 80.2772 11.0109 81.1526 11.0118C81.1535 15.1963 81.1535 19.3808 81.1526 23.5661C80.2772 23.5661 79.4008 23.5661 78.5253 23.5652C78.5262 22.9511 78.5235 22.337 78.5272 21.7229C77.638 22.8515 76.2791 23.5945 74.849 23.7343C73.5833 23.8796 72.261 23.6283 71.1772 22.9447C69.6922 22.0364 68.7052 20.4362 68.3927 18.7402C68.1679 17.4928 68.2081 16.1851 68.5837 14.9697C69.0196 13.5687 69.9608 12.3095 71.243 11.5784ZM74.0539 13.1301C73.077 13.2992 72.1833 13.8822 71.6405 14.7129C70.9679 15.6943 70.8226 16.9509 70.9999 18.105C71.1845 19.3332 71.9192 20.5066 73.0387 21.0832C74.042 21.6261 75.3031 21.6443 76.3276 21.1435C77.0449 20.8082 77.6252 20.216 77.998 19.5215C78.4915 18.6168 78.6058 17.5458 78.476 16.5351C78.3481 15.4924 77.8199 14.4917 76.9892 13.8411C76.1704 13.2005 75.0747 12.94 74.0539 13.1301Z" fill="#56565C"/>
<path id="Vector_7" d="M102.161 10.9241C103.764 10.6435 105.502 10.8318 106.904 11.7009C107.988 12.3506 108.811 13.3979 109.237 14.5822C109.668 15.7546 109.71 17.0368 109.547 18.265C106.351 18.2677 103.154 18.264 99.9575 18.2659C100.012 18.8791 100.177 19.4932 100.519 20.0113C101.059 20.8475 101.982 21.4204 102.97 21.5374C103.843 21.6471 104.793 21.5255 105.52 20.9973C105.942 20.6994 106.25 20.2717 106.491 19.8194C107.427 19.8185 108.364 19.8176 109.301 19.8203C108.924 20.99 108.156 22.0217 107.15 22.7272C105.954 23.5881 104.425 23.8531 102.98 23.7526C101.524 23.6603 100.086 23.0626 99.0592 22.0153C98.0412 21.0001 97.4462 19.6056 97.3073 18.1818C97.1337 16.5031 97.4133 14.7165 98.3866 13.3065C99.2419 12.0308 100.658 11.1873 102.161 10.9241ZM101.071 13.9023C100.434 14.478 100.091 15.3105 99.9776 16.1503C102.291 16.1549 104.605 16.1512 106.919 16.1512C106.905 15.3233 106.59 14.4844 105.96 13.9297C104.645 12.7289 102.38 12.6522 101.071 13.9023Z" fill="#56565C"/>
<path id="Vector_8" d="M122.622 10.8976C124.033 10.66 125.565 10.8556 126.771 11.6662C127.256 11.9741 127.685 12.3653 128.045 12.8121C128.043 12.2126 128.045 11.6123 128.045 11.0119C128.92 11.0109 129.795 11.0119 130.672 11.0119C130.672 15.1963 130.672 19.3817 130.672 23.5662C129.795 23.5653 128.92 23.5662 128.045 23.5662C128.045 22.9502 128.043 22.3352 128.045 21.7202C127.084 22.9502 125.562 23.7096 124.004 23.7636C122.546 23.8613 121.061 23.3715 119.962 22.4074C118.778 21.3839 118.046 19.8916 117.846 18.3491C117.635 16.7179 117.859 14.9807 118.739 13.5651C119.571 12.1743 121.021 11.169 122.622 10.8976ZM123.927 13.0826C122.867 13.1667 121.849 13.725 121.237 14.5987C120.689 15.3389 120.451 16.2664 120.448 17.1775C120.401 18.6808 121.097 20.2672 122.443 21.0211C123.849 21.8646 125.804 21.5758 126.91 20.3659C127.977 19.2437 128.243 17.5568 127.91 16.0846C127.666 15.0209 126.983 14.0431 126.015 13.5203C125.383 13.1713 124.645 13.0223 123.927 13.0826Z" fill="#56565C"/>
<path id="Vector_9" d="M136.906 12.4247C137.963 11.18 139.686 10.6555 141.28 10.8355C142.644 10.9534 144.005 11.5922 144.807 12.7317C145.489 13.6684 145.774 14.8399 145.785 15.9859C145.784 18.5126 145.785 21.0394 145.784 23.5662C144.923 23.5662 144.063 23.5662 143.202 23.5662C143.201 21.1938 143.203 18.8215 143.202 16.4492C143.198 15.5098 142.948 14.5027 142.235 13.8438C141.527 13.1649 140.48 12.9821 139.536 13.1046C138.767 13.1905 138.027 13.5779 137.566 14.2039C137.067 14.8673 136.91 15.72 136.909 16.5342C136.909 18.8782 136.909 21.2222 136.909 23.5662C136.04 23.5662 135.172 23.5662 134.304 23.5662C134.304 19.3808 134.303 15.1963 134.305 11.0119C135.172 11.0119 136.04 11.0109 136.909 11.0128C136.908 11.4834 136.91 11.954 136.906 12.4247Z" fill="#56565C"/>
<path id="Vector_10" d="M83.302 11.0117C84.2332 11.0117 85.1644 11.0107 86.0956 11.0126C87.2772 14.413 88.457 17.8143 89.6413 21.2137C90.822 17.8134 92.0045 14.413 93.1852 11.0126C94.1081 11.0098 95.032 11.0117 95.9559 11.0107C94.3622 15.1961 92.7666 19.3806 91.172 23.566C90.1357 23.566 89.0994 23.566 88.0631 23.566C86.4767 19.3806 84.8884 15.1961 83.302 11.0117Z" fill="#56565C"/>
<path id="Vector_11" d="M164.267 11.0118C167.172 11.0118 170.077 11.01 172.982 11.0136V11.0264C172.944 11.7283 173.006 12.4337 172.951 13.1328C172.15 14.3866 171.273 15.5956 170.442 16.832C169.391 18.3682 168.336 19.9016 167.288 21.4396C169.186 21.4433 171.084 21.4387 172.982 21.4424V23.5606C170.077 23.5734 167.172 23.5625 164.267 23.5661C164.278 22.8652 164.242 22.1625 164.281 21.4634C164.531 20.9726 164.899 20.5486 165.196 20.0817C166.787 17.7669 168.378 15.4521 169.971 13.1374C168.07 13.1356 166.168 13.1374 164.267 13.1365C164.266 12.4283 164.266 11.72 164.267 11.0118Z" fill="#56565C"/>
</g>
</svg>
