<svg xmlns="http://www.w3.org/2000/svg" width="16" height="16" viewBox="0 0 16 16" fill="none">
<path d="M3.53332 9.63998C3.76665 9.87331 3.89999 10.34 3.82665 10.6666L3.47999 12.1666C3.45332 12.3 3.2714 13.7069 3.36665 13.9666C3.43999 14.1666 3.55332 14.32 3.70665 14.4333C4.11332 14.7333 4.74665 14.66 5.48665 14.2266L7.43999 13.0666C7.74665 12.8866 8.25332 12.8866 8.55999 13.0666L10.5133 14.2266C10.9533 14.4866 11.3533 14.6133 11.6933 14.6133C11.9267 14.6133 12.1267 14.5533 12.2933 14.4333C12.7067 14.1333 12.8267 13.5066 12.6333 12.6733L12.1733 10.6666C12.0933 10.34 12.2267 9.87998 12.4667 9.63998L14.08 8.01998C14.5867 7.51331 14.7867 6.97331 14.64 6.50665C14.4867 6.03998 14.0133 5.71998 13.3067 5.59998L12.6333 5.48665C12.2133 5.41331 11.08 5.22665 10.8867 5.11331C10.6933 4.99998 10.5133 4.83331 10.4267 4.65998L9.27999 2.35998C8.94665 1.69998 8.49332 1.33331 7.99999 1.33331C7.50665 1.33331 7.05332 1.69998 6.71999 2.35998L5.57332 4.65998C5.43332 4.93331 5.06665 5.19998 4.76665 5.25331L2.68665 5.59998C1.97999 5.71998 1.50665 6.03998 1.35332 6.50665C1.20665 6.97331 1.40665 7.51331 1.91332 8.01998L3.53332 9.63998Z" fill="#1B1B1E"/>
</svg>