<svg xmlns="http://www.w3.org/2000/svg" width="16" height="16" viewBox="0 0 16 16" fill="none">
<path d="M13.7466 5.63335C13.0466 2.55335 10.3599 1.16669 7.99994 1.16669C7.99994 1.16669 7.99994 1.16669 7.99327 1.16669C5.63994 1.16669 2.94661 2.54669 2.24661 5.62669C1.46661 9.06669 3.57328 11.98 5.47994 13.8134C6.18661 14.4934 7.09328 14.8334 7.99994 14.8334C8.90661 14.8334 9.81328 14.4934 10.5133 13.8134C12.4199 11.98 14.5266 9.07335 13.7466 5.63335ZM7.99994 8.97335C6.83994 8.97335 5.89994 8.03335 5.89994 6.87335C5.89994 5.71335 6.83994 4.77335 7.99994 4.77335C9.15994 4.77335 10.0999 5.71335 10.0999 6.87335C10.0999 8.03335 9.15994 8.97335 7.99994 8.97335Z" fill="#8E8E92"/>
</svg>