<svg xmlns="http://www.w3.org/2000/svg" width="20" height="21" viewBox="0 0 20 21" fill="none">
<path d="M10.0001 2.16666C5.40841 2.16666 1.66675 5.90832 1.66675 10.5C1.66675 15.0917 5.40841 18.8333 10.0001 18.8333C14.5917 18.8333 18.3334 15.0917 18.3334 10.5C18.3334 5.90832 14.5917 2.16666 10.0001 2.16666ZM13.3334 11.125H10.6251V13.8333C10.6251 14.175 10.3417 14.4583 10.0001 14.4583C9.65841 14.4583 9.37508 14.175 9.37508 13.8333V11.125H6.66675C6.32508 11.125 6.04175 10.8417 6.04175 10.5C6.04175 10.1583 6.32508 9.87499 6.66675 9.87499H9.37508V7.16666C9.37508 6.82499 9.65841 6.54166 10.0001 6.54166C10.3417 6.54166 10.6251 6.82499 10.6251 7.16666V9.87499H13.3334C13.6751 9.87499 13.9584 10.1583 13.9584 10.5C13.9584 10.8417 13.6751 11.125 13.3334 11.125Z" fill="#EC6274"/>
</svg>