<svg xmlns="http://www.w3.org/2000/svg" width="16" height="16" viewBox="0 0 16 16" fill="none">
<path d="M6.00004 1.33331C4.25337 1.33331 2.83337 2.75331 2.83337 4.49998C2.83337 6.21331 4.17337 7.59998 5.92004 7.65998C5.97337 7.65331 6.02671 7.65331 6.06671 7.65998C6.08004 7.65998 6.08671 7.65998 6.10004 7.65998C6.10671 7.65998 6.10671 7.65998 6.11337 7.65998C7.82004 7.59998 9.16004 6.21331 9.16671 4.49998C9.16671 2.75331 7.74671 1.33331 6.00004 1.33331Z" fill="#8E8E92"/>
<path d="M9.38664 9.43336C7.52664 8.19336 4.49331 8.19336 2.61997 9.43336C1.77331 10 1.30664 10.7667 1.30664 11.5867C1.30664 12.4067 1.77331 13.1667 2.61331 13.7267C3.54664 14.3534 4.77331 14.6667 5.99997 14.6667C7.22664 14.6667 8.45331 14.3534 9.38664 13.7267C10.2266 13.16 10.6933 12.4 10.6933 11.5734C10.6866 10.7534 10.2266 9.99336 9.38664 9.43336Z" fill="#8E8E92"/>
<path d="M13.3266 4.89332C13.4333 6.18665 12.5133 7.31998 11.24 7.47332C11.2333 7.47332 11.2333 7.47332 11.2266 7.47332H11.2066C11.1666 7.47332 11.1266 7.47332 11.0933 7.48665C10.4466 7.51998 9.85328 7.31332 9.40662 6.93332C10.0933 6.31998 10.4866 5.39998 10.4066 4.39998C10.3599 3.85998 10.1733 3.36665 9.89328 2.94665C10.1466 2.81999 10.44 2.73999 10.74 2.71332C12.0466 2.59999 13.2133 3.57332 13.3266 4.89332Z" fill="#8E8E92"/>
<path d="M14.66 11.06C14.6067 11.7067 14.1933 12.2667 13.5 12.6467C12.8333 13.0133 11.9933 13.1867 11.16 13.1667C11.64 12.7333 11.92 12.1933 11.9733 11.62C12.04 10.7933 11.6467 10 10.86 9.36667C10.4133 9.01333 9.89333 8.73333 9.32666 8.52667C10.8 8.1 12.6533 8.38667 13.7933 9.30667C14.4067 9.8 14.72 10.42 14.66 11.06Z" fill="#8E8E92"/>
</svg>